<svg xmlns="http://www.w3.org/2000/svg" width="150" height="150" viewBox="0 0 39.687 39.688"><path fill="#e57000" d="M25.868 14.896 32.06 21.7a3.72 3.72 0 0 1-2.677 1.134 3.7 3.7 0 0 1-2.767-1.225l-3.424-3.764-2.677-2.95 2.677-2.925 3.424-3.765a3.7 3.7 0 0 1 2.767-1.225 3.8 3.8 0 0 1 2.677 1.112zm-12.081 0L7.596 21.7a3.72 3.72 0 0 0 2.676 1.134 3.7 3.7 0 0 0 2.767-1.225l3.425-3.764 2.676-2.95-2.676-2.925-3.425-3.765a3.7 3.7 0 0 0-2.767-1.225 3.8 3.8 0 0 0-2.676 1.112z"/><path fill="#fff" d="m22.268 18.27-2.443-2.69-2.443 2.69-5.651 6.21a3.46 3.46 0 0 0 2.442 1.015c1.015 0 1.864-.414 2.505-1.118l3.147-3.436 3.126 3.436a3.4 3.4 0 0 0 2.525 1.118c.953 0 1.822-.393 2.443-1.014zm0-6.748-2.443 2.691-2.443-2.69-5.651-6.21a3.46 3.46 0 0 1 2.442-1.016c1.015 0 1.864.414 2.505 1.118l3.147 3.436 3.126-3.436a3.4 3.4 0 0 1 2.525-1.118c.953 0 1.822.393 2.443 1.014zM3.976 30.75H.934a.44.44 0 0 0-.43.437v4.202q.489-.012.814-.339c.325-.327.33-.49.338-.82h2.32q.494-.013.824-.34.33-.325.342-.82v-1.153a1.16 1.16 0 0 0-.342-.825 1.16 1.16 0 0 0-.824-.342m-2.32 2.466v-1.3h2.035q.019-.008.142.036.124.045.143.25v.722q.009.017-.036.146-.045.127-.25.146zm8.786-.43v-.87a1.17 1.17 0 0 0-.338-.824 1.15 1.15 0 0 0-.821-.342H6.241a.43.43 0 0 0-.305.13.44.44 0 0 0-.125.308v4.2a1.16 1.16 0 0 0 1.16-1.159v-.29h1.318l.67.953q.16.231.403.363.244.13.544.134a1.2 1.2 0 0 0 .537-.133l-.935-1.332a1.165 1.165 0 0 0 .935-1.14m-3.472.14v-1.009h2.021q.017-.008.146.036.128.045.146.25v.437q.01.02-.037.142-.045.124-.255.143zm7.607-2.174h-2.313q-.494.014-.821.342-.326.33-.339.825v2.312a1.156 1.156 0 0 0 1.16 1.16h2.313a1.156 1.156 0 0 0 1.16-1.16v-2.31a1.17 1.17 0 0 0-.34-.826 1.15 1.15 0 0 0-.82-.342m0 3.188q.01.017-.037.146-.045.127-.255.145h-1.73q-.018.01-.145-.036-.128-.045-.146-.255v-1.736q-.009-.018.036-.143.046-.124.255-.142h1.73q.017-.009.146.035.127.045.146.25zm7.003-2.858a1.1 1.1 0 0 0-.782-.324 1.1 1.1 0 0 0-.809.357l-1 1.1-1.008-1.1a1.06 1.06 0 0 0-.802-.358 1.1 1.1 0 0 0-.782.325l1.81 1.988-1.81 1.988a1.09 1.09 0 0 0 1.59-.026l1.001-1.1 1.001 1.1a1.1 1.1 0 0 0 .809.358 1.1 1.1 0 0 0 .782-.332l-1.81-1.988zm6.028-.33h-.73a1.14 1.14 0 0 0-.636.193 1.2 1.2 0 0 0-.423.502l.006-.013-.682 1.498-.676-1.498v.013a1.16 1.16 0 0 0-1.06-.696h-.723a.435.435 0 0 0-.437.438v4.201a1.16 1.16 0 0 0 1.16-1.16v-2.22a.1.1 0 0 1 .027-.072.1.1 0 0 1 .072-.027q.026 0 .05.017a.1.1 0 0 1 .036.036l1.286 2.836a.3.3 0 0 0 .265.173.3.3 0 0 0 .155-.046.3.3 0 0 0 .11-.12l1.285-2.843a.2.2 0 0 1 .04-.036.1.1 0 0 1 .053-.017q.041 0 .066.028a.1.1 0 0 1 .027.072v2.22q.012.495.341.82.33.327.819.34v-4.202a.44.44 0 0 0-.126-.308.43.43 0 0 0-.305-.13m4.571 0h-2.313q-.495.013-.82.341-.327.33-.34.825v2.312a1.156 1.156 0 0 0 1.16 1.16h2.313a1.156 1.156 0 0 0 1.16-1.16v-2.31a1.17 1.17 0 0 0-.34-.826 1.15 1.15 0 0 0-.82-.342m0 3.188q.009.017-.036.146-.046.127-.256.145h-1.73q-.017.01-.145-.036-.128-.045-.146-.255v-1.736q-.01-.018.037-.143.045-.124.255-.142h1.73q.018-.009.145.035.128.045.146.25zm7.002-2.858a1.1 1.1 0 0 0-.781-.324 1.1 1.1 0 0 0-.808.357l-1.001 1.1-1.007-1.1a1.06 1.06 0 0 0-.802-.358 1.1 1.1 0 0 0-.782.325l1.809 1.988L34 35.057a1.09 1.09 0 0 0 1.591-.026l1-1.1 1.002 1.1a1.1 1.1 0 0 0 .808.358 1.1 1.1 0 0 0 .782-.332l-1.81-1.988z"/></svg>